<svg xmlns="http://www.w3.org/2000/svg" width="705" viewBox="0 0 705 591" height="591" version="1.0"><defs><clipPath id="a"><path d="M 0.59375 236 L 119 236 L 119 354 L 0.59375 354 Z M 0.59375 236"/></clipPath><clipPath id="b"><path d="M 587 236 L 704.402344 236 L 704.402344 354 L 587 354 Z M 587 236"/></clipPath></defs><g clip-path="url(#a)"><path fill="#D74E48" d="M 0.59375 236.351562 L 118.148438 236.351562 L 118.148438 353.902344 L 0.59375 353.902344 Z M 0.59375 236.351562"/></g><path fill="#E87D49" d="M 117.898438 236.351562 L 235.449219 236.351562 L 235.449219 353.902344 L 117.898438 353.902344 Z M 117.898438 236.351562"/><path fill="#F6BC25" d="M 235.199219 236.351562 L 352.75 236.351562 L 352.75 353.902344 L 235.199219 353.902344 Z M 235.199219 236.351562"/><path fill="#38A1CE" d="M 352.5 236.351562 L 470.050781 236.351562 L 470.050781 353.902344 L 352.5 353.902344 Z M 352.5 236.351562"/><path fill="#6EB95E" d="M 469.800781 236.351562 L 587.351562 236.351562 L 587.351562 353.902344 L 469.800781 353.902344 Z M 469.800781 236.351562"/><g clip-path="url(#b)"><path fill="#826BA1" d="M 587.101562 236.351562 L 704.652344 236.351562 L 704.652344 353.902344 L 587.101562 353.902344 Z M 587.101562 236.351562"/></g></svg>